<svg version="1.1" viewBox="0.0 0.0 256.0 256.0" fill="none" stroke="none" stroke-linecap="square" stroke-miterlimit="10" xmlns:xlink="http://www.w3.org/1999/xlink" xmlns="http://www.w3.org/2000/svg"><clipPath id="p.0"><path d="m0 0l256.0 0l0 256.0l-256.0 0l0 -256.0z" clip-rule="nonzero"/></clipPath><g clip-path="url(#p.0)"><path fill="#000000" fill-opacity="0.0" d="m0 0l256.0 0l0 256.0l-256.0 0z" fill-rule="evenodd"/><path fill="#eaa500" d="m0 0l256.0 0l0 256.0l-256.0 0z" fill-rule="evenodd"/><path fill="#ffce0f" d="m256.0 0l0 256.0l-256.0 -256.0z" fill-rule="evenodd"/><path fill="#c37000" d="m15.8815565 127.991776l0 0c0 -61.91677 50.193462 -112.11024 112.11024 -112.11024l0 0c29.73349 0 58.24916 11.81158 79.27391 32.83633c21.02475 21.024746 32.836334 49.540424 32.836334 79.27391l0 0c0 61.91678 -50.193466 112.11023 -112.110245 112.11023l0 0c-61.91677 0 -112.11024 -50.19345 -112.11024 -112.11023z" fill-rule="evenodd"/><path fill="#834000" d="m74.11406 127.98825l0 0c0 -29.753792 24.120216 -53.874016 53.874016 -53.874016l0 0c14.288277 0 27.99134 5.6760025 38.09469 15.779335c10.1033325 10.10334 15.779327 23.806404 15.779327 38.09468l0 0c0 29.7538 -24.120224 53.874023 -53.874016 53.874023l0 0c-29.7538 0 -53.874016 -24.120224 -53.874016 -53.874023z" fill-rule="evenodd"/><g filter="url(#shadowFilter-p.1)"><use xlink:href="#p.1" transform="matrix(1.0 0.0 0.0 1.0 1.0000002402958907 0.0)"/></g><defs><filter id="shadowFilter-p.1" filterUnits="userSpaceOnUse"><feGaussianBlur in="SourceAlpha" stdDeviation="9.0" result="blur"/><feComponentTransfer in="blur" color-interpolation-filters="sRGB"><feFuncR type="linear" slope="0" intercept="0.0"/><feFuncG type="linear" slope="0" intercept="0.0"/><feFuncB type="linear" slope="0" intercept="0.0"/><feFuncA type="linear" slope="0.5" intercept="0"/></feComponentTransfer></filter></defs><g id="p.1"><path fill="#b3c2ca" d="m65.96716 128.01576l0 0c0 -34.267746 27.779495 -62.04724 62.04724 -62.04724l0 0c16.455948 0 32.237915 6.5371017 43.874023 18.173218c11.636124 11.636116 18.173218 27.418076 18.173218 43.874023l0 0c0 34.267746 -27.779495 62.04724 -62.04724 62.04724l0 0c-34.267746 0 -62.04724 -27.779495 -62.04724 -62.04724zm10.895493 0l0 0c0 28.250336 22.90142 51.15175 51.15175 51.15175c28.250336 0 51.15175 -22.901413 51.15175 -51.15175l0 0c0 -28.250328 -22.901413 -51.15174 -51.15175 -51.15174l0 0c-28.250328 0 -51.15175 22.901413 -51.15175 51.15174z" fill-rule="evenodd"/></g><g filter="url(#shadowFilter-p.2)"><use xlink:href="#p.2" transform="matrix(1.0 0.0 0.0 1.0 1.0 0.0)"/></g><defs><filter id="shadowFilter-p.2" filterUnits="userSpaceOnUse"><feGaussianBlur in="SourceAlpha" stdDeviation="9.0" result="blur"/><feComponentTransfer in="blur" color-interpolation-filters="sRGB"><feFuncR type="linear" slope="0" intercept="0.0"/><feFuncG type="linear" slope="0" intercept="0.0"/><feFuncB type="linear" slope="0" intercept="0.0"/><feFuncA type="linear" slope="0.5" intercept="0"/></feComponentTransfer></filter></defs><g id="p.2"><path fill="#b3c2ca" d="m212.14742 94.566574l0 0c15.124603 38.080856 2.7927856 81.57263 -30.069016 106.04724c-32.8618 24.474594 -78.06352 23.83229 -110.21664 -1.5661621c-32.15312 -25.398468 -43.244186 -69.22307 -27.043663 -106.858795l29.298454 12.611694l0 0c-10.493725 24.378159 -3.3096008 52.76512 17.517258 69.216705c20.826859 16.4516 50.105827 16.86766 71.39173 1.0144653c21.285904 -15.85318 29.273712 -44.024536 19.476898 -68.69103z" fill-rule="evenodd"/><path stroke="#b3c2ca" stroke-width="8.0" stroke-linejoin="round" stroke-linecap="butt" d="m212.14742 94.566574l0 0c15.124603 38.080856 2.7927856 81.57263 -30.069016 106.04724c-32.8618 24.474594 -78.06352 23.83229 -110.21664 -1.5661621c-32.15312 -25.398468 -43.244186 -69.22307 -27.043663 -106.858795l29.298454 12.611694l0 0c-10.493725 24.378159 -3.3096008 52.76512 17.517258 69.216705c20.826859 16.4516 50.105827 16.86766 71.39173 1.0144653c21.285904 -15.85318 29.273712 -44.024536 19.476898 -68.69103z" fill-rule="evenodd"/></g><path fill="#dae1e5" d="m192.26599 191.79352l0 0c26.043823 -26.228745 33.531616 -65.65396 18.917328 -99.60466l-29.298447 12.611694l0 0c9.466248 21.991226 4.616104 47.52852 -12.2535095 64.51793z" fill-rule="evenodd"/><path stroke="#dae1e5" stroke-width="8.0" stroke-linejoin="round" stroke-linecap="butt" d="m192.26599 191.79352l0 0c26.043823 -26.228745 33.531616 -65.65396 18.917328 -99.60466l-29.298447 12.611694l0 0c9.466248 21.991226 4.616104 47.52852 -12.2535095 64.51793z" fill-rule="evenodd"/><path fill="#b3c2ca" d="m175.58696 174.09262l0 0c-16.657562 17.19757 -41.29782 24.06987 -64.45151 17.97586c-23.153687 -6.0940094 -41.21811 -24.2061 -47.251083 -47.375763c-6.0329704 -23.169662 0.9042282 -47.791733 18.14563 -64.40391l7.936928 8.237556l0 0c-14.264496 13.743919 -20.003922 34.11474 -15.012604 53.283936c4.9913177 19.16919 19.936737 34.154037 39.092712 39.19586c19.155968 5.041809 39.541847 -0.64390564 53.32331 -14.872147z" fill-rule="evenodd"/><path stroke="#b3c2ca" stroke-width="8.0" stroke-linejoin="round" stroke-linecap="butt" d="m175.58696 174.09262l0 0c-16.657562 17.19757 -41.29782 24.06987 -64.45151 17.97586c-23.153687 -6.0940094 -41.21811 -24.2061 -47.251083 -47.375763c-6.0329704 -23.169662 0.9042282 -47.791733 18.14563 -64.40391l7.936928 8.237556l0 0c-14.264496 13.743919 -20.003922 34.11474 -15.012604 53.283936c4.9913177 19.16919 19.936737 34.154037 39.092712 39.19586c19.155968 5.041809 39.541847 -0.64390564 53.32331 -14.872147z" fill-rule="evenodd"/><path fill="#dae1e5" d="m81.28398 81.031395l0 0c25.899757 -25.760494 67.76367 -25.696606 93.58467 0.14281464c25.821014 25.839424 25.855057 67.70337 0.07609558 93.58476l-8.188217 -8.155823l0 0c21.282074 -21.366623 21.253983 -55.927826 -0.062820435 -77.25982c-21.316788 -21.332 -55.877953 -21.384743 -77.25976 -0.11790466z" fill-rule="evenodd"/><path stroke="#dae1e5" stroke-width="8.0" stroke-linejoin="round" stroke-linecap="butt" d="m81.28398 81.031395l0 0c25.899757 -25.760494 67.76367 -25.696606 93.58467 0.14281464c25.821014 25.839424 25.855057 67.70337 0.07609558 93.58476l-8.188217 -8.155823l0 0c21.282074 -21.366623 21.253983 -55.927826 -0.062820435 -77.25982c-21.316788 -21.332 -55.877953 -21.384743 -77.25976 -0.11790466z" fill-rule="evenodd"/><path fill="#eaa500" d="m117.0404 111.75426l32.33526 44.953003l-21.556839 -10.516785l-21.029602 10.253174l2.8918228 -23.39618l-16.562057 -17.087296z" fill-rule="evenodd"/><path stroke="#eaa500" stroke-width="8.0" stroke-linejoin="round" stroke-linecap="butt" d="m117.0404 111.75426l32.33526 44.953003l-21.556839 -10.516785l-21.029602 10.253174l2.8918228 -23.39618l-16.562057 -17.087296z" fill-rule="evenodd"/><path fill="#ffce0f" d="m116.57695 112.72655l33.158844 44.344788l-3.5538788 -23.719193l16.096848 -16.976349l-23.182648 -4.270958l-11.321014 -20.929482z" fill-rule="evenodd"/><path stroke="#ffce0f" stroke-width="8.0" stroke-linejoin="round" stroke-linecap="butt" d="m116.57695 112.72655l33.158844 44.344788l-3.5538788 -23.719193l16.096848 -16.976349l-23.182648 -4.270958l-11.321014 -20.929482z" fill-rule="evenodd"/><path fill="#dae1e5" d="m192.26599 191.79352l0 0c2.030304 -2.0447083 3.9618378 -4.1851807 5.788025 -6.4140778l-27.443039 -22.484756l0 0c-1.1106873 1.3556213 -2.2854614 2.6574554 -3.520279 3.9010468z" fill-rule="evenodd"/><path stroke="#dae1e5" stroke-width="8.0" stroke-linejoin="round" stroke-linecap="butt" d="m192.26599 191.79352l0 0c2.030304 -2.0447083 3.9618378 -4.1851807 5.788025 -6.4140778l-27.443039 -22.484756l0 0c-1.1106873 1.3556213 -2.2854614 2.6574554 -3.520279 3.9010468z" fill-rule="evenodd"/></g></svg>